<?xml version="1.0" encoding="UTF-8"?>
<!DOCTYPE svg PUBLIC "-//W3C//DTD SVG 1.1//EN" "http://www.w3.org/Graphics/SVG/1.1/DTD/svg11.dtd">
<svg xmlns="http://www.w3.org/2000/svg" version="1.1" width="256px" height="256px" style="shape-rendering:geometricPrecision; text-rendering:geometricPrecision; image-rendering:optimizeQuality; fill-rule:evenodd; clip-rule:evenodd" xmlns:xlink="http://www.w3.org/1999/xlink">
<g><path style="opacity:0.98" fill="#fe6535" d="M 94.5,-0.5 C 105.5,-0.5 116.5,-0.5 127.5,-0.5C 127.5,84.8333 127.5,170.167 127.5,255.5C 116.5,255.5 105.5,255.5 94.5,255.5C 94.6666,231.831 94.5,208.164 94,184.5C 73.6566,196.183 53.3233,207.85 33,219.5C 21.5413,201.423 10.7079,182.923 0.5,164C 20.6845,151.663 41.0179,139.496 61.5,127.5C 41.5,115.833 21.5,104.167 1.5,92.5C 0.417278,91.635 0.250612,90.635 1,89.5C 11.1747,71.1414 21.8414,53.1414 33,35.5C 53.3233,47.1504 73.6566,58.8171 94,70.5C 94.5,46.8357 94.6666,23.169 94.5,-0.5 Z"/></g>
<g><path style="opacity:1" fill="#ff421d" d="M 127.5,-0.5 C 138.167,-0.5 148.833,-0.5 159.5,-0.5C 159.167,23.5093 159.5,47.5093 160.5,71.5C 161.107,71.3764 161.44,71.0431 161.5,70.5C 181.508,58.6807 201.675,47.014 222,35.5C 233.459,53.5769 244.292,72.0769 254.5,91C 234.315,103.337 213.982,115.504 193.5,127.5C 213.982,139.496 234.315,151.663 254.5,164C 244.292,182.923 233.459,201.423 222,219.5C 201.675,207.986 181.508,196.319 161.5,184.5C 161.44,183.957 161.107,183.624 160.5,183.5C 159.5,207.491 159.167,231.491 159.5,255.5C 148.833,255.5 138.167,255.5 127.5,255.5C 127.5,170.167 127.5,84.8333 127.5,-0.5 Z"/></g>
<g><path style="opacity:0.181" fill="#ff5228" d="M 159.5,-0.5 C 159.833,-0.5 160.167,-0.5 160.5,-0.5C 160.169,23.3392 160.502,47.0059 161.5,70.5C 161.44,71.0431 161.107,71.3764 160.5,71.5C 159.5,47.5093 159.167,23.5093 159.5,-0.5 Z"/></g>
<g><path style="opacity:0.181" fill="#ff5228" d="M 161.5,184.5 C 160.502,207.994 160.169,231.661 160.5,255.5C 160.167,255.5 159.833,255.5 159.5,255.5C 159.167,231.491 159.5,207.491 160.5,183.5C 161.107,183.624 161.44,183.957 161.5,184.5 Z"/></g>
</svg>
